<mxfile host="app.diagrams.net" modified="2024-04-09T23:42:15.434Z" agent="Mozilla/5.0 (Windows NT 10.0; Win64; x64) AppleWebKit/537.36 (KHTML, like Gecko) Chrome/123.0.0.0 Safari/537.36 Edg/123.0.0.0" etag="Gjw7V0wygKW6QQpzorEM" version="24.2.3" type="device">
  <diagram name="PÃ¡gina-1" id="1Cj47Vro6enEQjrIeQED">
    <mxGraphModel dx="379" dy="447" grid="1" gridSize="10" guides="1" tooltips="1" connect="1" arrows="1" fold="1" page="1" pageScale="1" pageWidth="827" pageHeight="1169" math="0" shadow="0">
      <root>
        <mxCell id="0" />
        <mxCell id="1" parent="0" />
        <mxCell id="gQl1lAT2zoQTpLVLFxUn-1" value="Livro" style="swimlane;fontStyle=1;align=center;verticalAlign=top;childLayout=stackLayout;horizontal=1;startSize=26;horizontalStack=0;resizeParent=1;resizeParentMax=0;resizeLast=0;collapsible=1;marginBottom=0;whiteSpace=wrap;html=1;" vertex="1" parent="1">
          <mxGeometry x="220" y="270" width="310" height="290" as="geometry" />
        </mxCell>
        <mxCell id="gQl1lAT2zoQTpLVLFxUn-2" value="- titulo: String&lt;div&gt;- autor: String&lt;/div&gt;&lt;div&gt;- anoPublicacao: inteiro&lt;/div&gt;&lt;div&gt;- emprestado: booleano&lt;/div&gt;" style="text;strokeColor=none;fillColor=none;align=left;verticalAlign=top;spacingLeft=4;spacingRight=4;overflow=hidden;rotatable=0;points=[[0,0.5],[1,0.5]];portConstraint=eastwest;whiteSpace=wrap;html=1;" vertex="1" parent="gQl1lAT2zoQTpLVLFxUn-1">
          <mxGeometry y="26" width="310" height="64" as="geometry" />
        </mxCell>
        <mxCell id="gQl1lAT2zoQTpLVLFxUn-3" value="" style="line;strokeWidth=1;fillColor=none;align=left;verticalAlign=middle;spacingTop=-1;spacingLeft=3;spacingRight=3;rotatable=0;labelPosition=right;points=[];portConstraint=eastwest;strokeColor=inherit;" vertex="1" parent="gQl1lAT2zoQTpLVLFxUn-1">
          <mxGeometry y="90" width="310" height="8" as="geometry" />
        </mxCell>
        <mxCell id="gQl1lAT2zoQTpLVLFxUn-4" value="+ Livro(titulo String, autor String, anoPublicacao inteiro)&lt;div&gt;+ getTitulo(): String&lt;/div&gt;&lt;div&gt;&lt;div&gt;+ setTitulo()&lt;/div&gt;&lt;/div&gt;&lt;div&gt;+ getAutor(): String&lt;/div&gt;&lt;div&gt;&lt;div&gt;&lt;span style=&quot;background-color: initial;&quot;&gt;+ setAutor()&lt;/span&gt;&lt;/div&gt;&lt;/div&gt;&lt;div&gt;+ getAnoPublicacao(): inteiro&lt;br&gt;&lt;/div&gt;&lt;div&gt;+ setAnoPublicacao()&lt;/div&gt;&lt;div&gt;+ emprestar()&lt;/div&gt;&lt;div&gt;+ devolver()&lt;/div&gt;&lt;div&gt;+ exibirInformacoes(): String&lt;/div&gt;" style="text;strokeColor=none;fillColor=none;align=left;verticalAlign=top;spacingLeft=4;spacingRight=4;overflow=hidden;rotatable=0;points=[[0,0.5],[1,0.5]];portConstraint=eastwest;whiteSpace=wrap;html=1;" vertex="1" parent="gQl1lAT2zoQTpLVLFxUn-1">
          <mxGeometry y="98" width="310" height="192" as="geometry" />
        </mxCell>
      </root>
    </mxGraphModel>
  </diagram>
</mxfile>
